<?xml version="1.0" encoding="UTF-8"?>
<svg width="125px" height="47px" viewBox="0 0 125 47" version="1.1" xmlns="http://www.w3.org/2000/svg" xmlns:xlink="http://www.w3.org/1999/xlink">
    <title>logo-blue</title>
    <g id="Page-1" stroke="none" stroke-width="1" fill="none" fill-rule="evenodd">
        <g id="logo-blue" transform="translate(-0.000058, -0.000223)" fill="#1582D8" fill-rule="nonzero">
            <path d="M122.640058,8.20022378 C122.415111,8.09194875 122.184815,7.99515764 121.950058,7.91022378 L121.950058,7.91022378 C118.329637,6.53155616 114.295605,6.74413122 110.840131,8.49566611 C107.384657,10.247201 104.828396,13.3751608 103.800058,17.1102238 C102.57609,12.6605144 99.2000119,9.12247639 94.812493,7.69150121 C90.4249742,6.26052602 85.6121262,7.12777188 82.0000587,10.0002238 L82.0000587,2.61022378 C82.0002262,1.18423816 80.8558769,0.0220779561 79.4300587,7.24805239e-05 L79.4300587,7.24805239e-05 C78.7343849,-0.00510721055 78.0653716,0.26751892 77.5715675,0.757567867 C77.0777634,1.24761681 76.8000383,1.91452954 76.8000587,2.61022378 L76.8000587,15.6102238 C75.1735009,11.6048755 71.7567414,8.59859138 67.5769261,7.49512013 C63.3971107,6.39164888 58.9416925,7.3196781 55.5500587,10.0002238 L55.5500587,2.61022378 C55.5500638,1.91627264 55.2737102,1.25088895 54.7820753,0.761130531 C54.2904404,0.271372107 53.6240048,-0.00243503657 52.9300587,7.24805239e-05 L52.9300587,7.24805239e-05 C51.4885955,7.24805239e-05 50.3200587,1.16876058 50.3200587,2.61022378 L50.3200587,17.1602238 C48.687935,11.1790423 43.2549265,7.02993026 37.0550587,7.02993026 C30.855191,7.02993026 25.4221825,11.1790423 23.7900587,17.1602238 L23.7900587,9.62022378 C23.7927838,8.92104747 23.514869,8.2500112 23.0185967,7.75749853 C22.5223243,7.26498586 21.8491941,6.9921819 21.1500587,7.00022378 L21.1500587,7.00022378 C19.7085955,7.00022378 18.5400587,8.16876058 18.5400587,9.61022378 L18.5400587,20.7602238 L18.5400587,20.7602238 C18.5400587,25.4502238 16.6000587,29.2602238 11.9100587,29.2602238 C7.22005871,29.2602238 5.28005871,25.4602238 5.28005871,20.7602238 L5.28005871,9.62022378 C5.28278382,8.92104747 5.00486896,8.2500112 4.50859665,7.75749853 C4.01232434,7.26498586 3.33919408,6.9921819 2.64005871,7.00022378 L2.64005871,7.00022378 C1.94092334,6.9921819 1.26779308,7.26498586 0.771520768,7.75749853 C0.275248456,8.2500112 -0.00266640089,8.92104747 1.92857802e-05,9.62022378 L1.92857802e-05,20.7602238 C1.92857802e-05,28.3502238 4.29005871,34.5002238 11.8800587,34.5002238 C14.2452827,34.5465771 16.5650263,33.8468053 18.5100587,32.5002238 C18.4470262,35.0715073 17.2230979,37.4759654 15.1811789,39.0399472 C13.1392599,40.6039289 10.4989796,41.1592119 8.00005871,40.5502238 L8.00005871,40.5502238 C7.60233007,40.4471403 7.21422697,40.3099659 6.84005871,40.1402238 C5.54094858,39.5062745 3.97334969,40.0258469 3.31005871,41.3102238 L3.31005871,41.3102238 C2.68179555,42.6097101 3.20001766,44.1732349 4.48005871,44.8402238 L4.80005871,45.0002238 L4.80005871,45.0002238 C9.0442122,46.7535576 13.8835069,46.2724555 17.6993812,43.7178281 C21.5152555,41.1632007 23.8039785,36.8722825 23.8000587,32.2802238 L23.8000587,24.3702238 C25.0095775,28.8195358 28.3701222,32.3655632 32.7481019,33.8121474 C37.1260816,35.2587317 41.9377653,34.4129949 45.5600587,31.5602238 L45.5600587,31.8902238 C45.5600587,33.331687 46.7285955,34.5002238 48.1700587,34.5002238 L48.1700587,34.5002238 C49.6115219,34.5002238 50.7800587,33.331687 50.7800587,31.8902238 L50.7800587,24.3502238 C52.4050013,30.3261179 57.8243176,34.4783304 64.0171806,34.4923414 C70.2100436,34.5063524 75.6480927,30.3787041 77.3000587,24.4102238 C78.880082,30.0848621 83.8991808,34.1226958 89.7805421,34.4506948 C95.6619034,34.7786938 101.098855,31.323986 103.300058,25.8602238 L103.300058,31.8602238 C103.300058,32.5524388 103.57504,33.2163026 104.06451,33.7057725 C104.55398,34.1952424 105.217843,34.4702238 105.910058,34.4702238 L105.910058,34.4702238 C107.351522,34.4702238 108.520058,33.301687 108.520058,31.8602238 L108.520058,20.7602238 C108.522089,18.1442134 109.728595,15.6748564 111.791023,14.0655378 C113.853451,12.4562192 116.542036,11.886225 119.080058,12.5202238 C119.474409,12.6237588 119.859153,12.7609282 120.230058,12.9302238 C121.529169,13.5641731 123.096767,13.0446007 123.760058,11.7602238 L123.760058,11.7602238 C124.41573,10.4663338 123.918436,8.88564902 122.640058,8.20022378 Z M37.0000587,29.2502238 C32.3056383,29.2502238 28.5000587,25.4446442 28.5000587,20.7502238 C28.5000587,16.0558034 32.3056383,12.2502238 37.0000587,12.2502238 C41.6944791,12.2502238 45.5000587,16.0558034 45.5000587,20.7502238 C45.5000587,25.4446442 41.6944791,29.2502238 37.0000587,29.2502238 L37.0000587,29.2502238 Z M64.0000587,29.2502238 C59.3056383,29.2502238 55.5000587,25.4446442 55.5000587,20.7502238 C55.5000587,16.0558034 59.3056383,12.2502238 64.0000587,12.2502238 C68.6944791,12.2502238 72.5000587,16.0558034 72.5000587,20.7502238 C72.5000587,25.4446442 68.6944791,29.2502238 64.0000587,29.2502238 L64.0000587,29.2502238 Z M90.5000587,29.2502238 C85.8056383,29.2502238 82.0000587,25.4446442 82.0000587,20.7502238 C82.0000587,16.0558034 85.8056383,12.2502238 90.5000587,12.2502238 C95.1944791,12.2502238 99.0000587,16.0558034 99.0000587,20.7502238 C99.0000587,25.4290675 95.2188506,29.2282057 90.5400587,29.2502238 L90.5000587,29.2502238 Z" id="Shape"></path>
            <circle id="Oval" cx="48.1500587" cy="42.7002238" r="3.25"></circle>
            <circle id="Oval" cx="63.7800587" cy="42.7002238" r="3.25"></circle>
            <circle id="Oval" cx="79.4200587" cy="42.7002238" r="3.25"></circle>
        </g>
    </g>
</svg>